<?xml version="1.0" standalone="no"?>
<!DOCTYPE svg PUBLIC "-//W3C//DTD SVG 20010904//EN"
 "http://www.w3.org/TR/2001/REC-SVG-20010904/DTD/svg10.dtd">
<svg version="1.0" xmlns="http://www.w3.org/2000/svg"
 width="512.000000pt" height="512.000000pt" viewBox="0 0 512.000000 512.000000"
 preserveAspectRatio="xMidYMid meet">

<g transform="translate(0.000000,512.000000) scale(0.100000,-0.100000)"
fill="#000000" stroke="none">
<path d="M1990 4245 c-337 -69 -587 -329 -640 -665 -8 -55 -10 -342 -8 -1065
4 -1074 0 -1003 58 -1157 66 -177 261 -372 438 -438 149 -56 135 -55 722 -55
478 0 552 2 605 17 106 29 172 58 247 107 224 147 361 389 362 641 1 83 -2
100 -23 133 -13 21 -42 50 -64 65 -34 23 -52 27 -107 27 -55 0 -73 -4 -107
-27 -61 -40 -82 -82 -93 -185 -19 -165 -97 -280 -238 -346 l-67 -32 -515 0
-515 0 -67 32 c-93 44 -151 100 -196 191 l-37 76 -3 403 -3 403 954 2 953 3
41 27 c22 15 51 44 64 65 l24 38 0 540 c0 581 1 568 -55 717 -29 77 -104 191
-175 261 -68 70 -184 148 -263 177 -148 56 -128 54 -697 56 -411 2 -545 0
-595 -11z m1162 -427 c91 -45 147 -103 191 -196 l32 -67 3 -392 3 -393 -821 0
-821 0 3 393 3 392 32 67 c17 37 50 87 72 111 44 48 135 101 197 116 22 5 255
9 535 8 l495 -2 76 -37z"/>
</g>
</svg>
